<?xml version="1.0" encoding="iso-8859-1"?>
<!-- Uploaded to: SVG Repo, www.svgrepo.com, Generator: SVG Repo Mixer Tools -->
<svg fill="#000000" height="800px" width="800px" version="1.1" id="Layer_1" xmlns="http://www.w3.org/2000/svg" xmlns:xlink="http://www.w3.org/1999/xlink" 
	 viewBox="0 0 512 512" xml:space="preserve">
<g>
	<g>
		<path d="M371.093,0H149.227c-18.773,0-34.133,15.36-34.133,34.133v443.733c0,18.773,15.36,34.133,34.133,34.133h221.867
			c18.773,0,34.133-15.36,34.133-34.133V34.133C405.227,15.36,389.867,0,371.093,0z M388.16,477.867
			c0,9.387-7.68,17.067-17.067,17.067H149.227c-9.387,0-17.067-7.68-17.067-17.067V34.133c0-9.387,7.68-17.067,17.067-17.067
			h221.867c9.387,0,17.067,7.68,17.067,17.067V477.867z"/>
	</g>
</g>
<g>
	<g>
		<path d="M115.093,51.2v392.533h290.133V51.2H115.093z M388.16,426.667h-256v-358.4h256V426.667z"/>
	</g>
</g>
<g>
	<g>
		<path d="M294.293,25.6h-42.667c-5.12,0-8.533,3.413-8.533,8.533c0,5.12,3.413,8.533,8.533,8.533h42.667
			c5.12,0,8.533-3.413,8.533-8.533C302.827,29.013,299.413,25.6,294.293,25.6z"/>
	</g>
</g>
<g>
	<g>
		<path d="M226.027,25.6h-8.533c-5.12,0-8.533,3.413-8.533,8.533c0,5.12,3.413,8.533,8.533,8.533h8.533
			c5.12,0,8.533-3.413,8.533-8.533C234.56,29.013,231.147,25.6,226.027,25.6z"/>
	</g>
</g>
<g>
	<g>
		<path d="M115.093,76.8c-5.12,0-8.533,3.413-8.533,8.533v8.533c0,5.12,3.413,8.533,8.533,8.533c5.12,0,8.533-3.413,8.533-8.533
			v-8.533C123.627,80.213,120.213,76.8,115.093,76.8z"/>
	</g>
</g>
<g>
	<g>
		<path d="M115.093,110.933c-5.12,0-8.533,3.413-8.533,8.533V128c0,5.12,3.413,8.533,8.533,8.533c5.12,0,8.533-3.413,8.533-8.533
			v-8.533C123.627,114.347,120.213,110.933,115.093,110.933z"/>
	</g>
</g>
<g>
	<g>
		<path d="M115.093,145.067c-5.12,0-8.533,3.413-8.533,8.533v8.533c0,5.12,3.413,8.533,8.533,8.533c5.12,0,8.533-3.413,8.533-8.533
			V153.6C123.627,148.48,120.213,145.067,115.093,145.067z"/>
	</g>
</g>
<g>
	<g>
		<path d="M260.16,435.2c-18.773,0-34.133,15.36-34.133,34.133c0,18.773,15.36,34.133,34.133,34.133s34.133-15.36,34.133-34.133
			C294.293,450.56,278.933,435.2,260.16,435.2z M260.16,486.4c-9.387,0-17.067-7.68-17.067-17.067s7.68-17.067,17.067-17.067
			s17.067,7.68,17.067,17.067S269.547,486.4,260.16,486.4z"/>
	</g>
</g>
<g>
	<g>
		<path d="M338.667,220.16c-3.413-32.427-30.72-58.027-64-58.027c-21.333,0-40.107,10.24-52.053,27.307
			c-2.56,0-4.267-0.853-6.827-0.853c-18.773,0-35.84,12.8-40.96,30.72c-15.36,9.387-24.747,25.6-24.747,44.373
			c0,28.16,22.187,51.2,50.347,51.2h85.333c0.853,0,0.853,0,0.853,0c0.853,0,0.853,0,1.707,0h34.987
			c26.453,0,47.787-22.187,47.787-48.64C371.093,244.907,357.44,226.987,338.667,220.16z M321.6,299.52
			c0,0-34.987-0.853-35.84-0.853h-87.04c-17.92,0-33.28-15.36-33.28-34.133c0-13.653,7.68-25.6,18.773-31.573l3.413-1.707
			l0.853-4.267c2.56-11.947,12.8-21.333,25.6-21.333c2.56,0,5.12,0.853,7.68,1.707l6.827,2.56l3.413-5.973
			c8.533-14.507,23.893-23.893,40.96-23.893c26.453,0,46.933,21.333,47.787,48.64v6.827l6.827,1.707
			c14.507,2.56,24.747,15.36,24.747,30.72C352.32,285.013,338.667,299.52,321.6,299.52z"/>
	</g>
</g>
<g>
	<g>
		<path d="M266.133,170.667c-6.827-20.48-26.453-34.133-47.787-34.133c-28.16,0-51.2,23.04-51.2,51.2
			c0,12.8,4.267,23.893,12.8,33.28l7.68,9.387l5.973-11.093c4.267-8.533,12.8-13.653,22.187-13.653c2.56,0,5.12,0.853,7.68,1.707
			l6.827,2.56l3.413-5.973c5.973-10.24,15.36-17.92,26.453-22.187l8.533-2.56L266.133,170.667z M221.76,189.44
			c-2.56,0-4.267-0.853-6.827-0.853c-11.093,0-21.333,4.267-29.013,11.947c-1.707-4.267-2.56-8.533-2.56-12.8
			c0-18.773,15.36-34.133,34.133-34.133c11.947,0,22.187,5.973,28.16,15.36C236.267,174.08,228.587,180.907,221.76,189.44z"/>
	</g>
</g>
<g>
	<g>
		<path d="M190.187,149.333l-8.533-17.067c-1.707-4.267-6.827-5.973-11.093-3.413c-4.267,2.56-5.12,7.68-3.413,11.093l8.533,17.067
			c1.707,4.267,6.827,5.973,11.093,3.413C191.04,158.72,192.747,153.6,190.187,149.333z"/>
	</g>
</g>
<g>
	<g>
		<path d="M217.493,119.467c-5.12,0-8.533,3.413-8.533,8.533v17.067c0,5.12,3.413,8.533,8.533,8.533s8.533-3.413,8.533-8.533V128
			C226.027,122.88,222.613,119.467,217.493,119.467z"/>
	</g>
</g>
<g>
	<g>
		<path d="M174.827,170.667H157.76c-5.12,0-8.533,3.413-8.533,8.533s3.413,8.533,8.533,8.533h17.067c5.12,0,8.533-3.413,8.533-8.533
			S179.947,170.667,174.827,170.667z"/>
	</g>
</g>
<g>
	<g>
		<path d="M80.96,34.133c-14.507,0-25.6-11.093-25.6-25.6c0-11.093-17.067-11.093-17.067,0c0,14.507-11.093,25.6-25.6,25.6
			C1.6,34.133,1.6,51.2,12.693,51.2c14.507,0,25.6,11.093,25.6,25.6c0,11.093,17.067,11.093,17.067,0
			c0-14.507,11.093-25.6,25.6-25.6C92.053,51.2,92.053,34.133,80.96,34.133z M46.827,51.2c-2.56-3.413-5.12-5.973-8.533-8.533
			c3.413-2.56,5.973-5.12,8.533-8.533c2.56,3.413,5.12,5.973,8.533,8.533C51.947,45.227,49.387,47.787,46.827,51.2z"/>
	</g>
</g>
<g>
	<g>
		<path d="M464.96,119.467c-5.12,0-8.533,3.413-8.533,8.533v34.133c0,5.12,3.413,8.533,8.533,8.533s8.533-3.413,8.533-8.533V128
			C473.493,122.88,470.08,119.467,464.96,119.467z"/>
	</g>
</g>
<g>
	<g>
		<path d="M482.027,136.533h-34.133c-5.12,0-8.533,3.413-8.533,8.533c0,5.12,3.413,8.533,8.533,8.533h34.133
			c5.12,0,8.533-3.413,8.533-8.533C490.56,139.947,487.147,136.533,482.027,136.533z"/>
	</g>
</g>
<g>
	<g>
		<path d="M63.893,366.933c-5.12,0-8.533,3.413-8.533,8.533S58.773,384,63.893,384s8.533-3.413,8.533-8.533
			S69.013,366.933,63.893,366.933z"/>
	</g>
</g>
<g>
	<g>
		<path d="M21.227,213.333c-5.12,0-8.533,3.413-8.533,8.533s3.413,8.533,8.533,8.533s8.533-3.413,8.533-8.533
			S26.347,213.333,21.227,213.333z"/>
	</g>
</g>
<g>
	<g>
		<path d="M439.36,298.667c-5.12,0-8.533,3.413-8.533,8.533s3.413,8.533,8.533,8.533s8.533-3.413,8.533-8.533
			S444.48,298.667,439.36,298.667z"/>
	</g>
</g>
<g>
	<g>
		<path d="M499.093,477.867c-5.12,0-8.533,3.413-8.533,8.533s3.413,8.533,8.533,8.533s8.533-3.413,8.533-8.533
			S504.213,477.867,499.093,477.867z"/>
	</g>
</g>
</svg>